# xmcd
#
# Track frame offsets:
# 150
# 16162
# 30570
# 52221
# 88371
# 107059
# 116451
# 134215
# 165555
# 177163
# 190789
# 209342
# 222567
# 236815
# 254641
# 273239
# 292756
# 307234
# 327904
#
# Disc length: 4553 seconds
#
#
# Revision: 5
# Processed by: cddbd v1.5.1PL2 Copyright (c) Steve Scherf et al.
# Submitted via: FreeRIP 2.944 
#
DISCID=2711c713
DTITLE=Fleetwood Mac - The Original Fleetwood Mac
DYEAR=1971
DGENRE=Blues
TTITLE0=Drifting
TTITLE1=Leaving Town Blues
TTITLE2=Watch Out (Outtake '67 - Master 1999)
TTITLE3=A Fool No More (Outtake '67 - Master 1999)
TTITLE4=Mean Old Fireman
TTITLE5=Can't Afford To Do It
TTITLE6=Fleetwood Mac (As Bluesbreakers 04-67 - Master 1999)
TTITLE7=Worried Dream
TTITLE8=Love That Woman
TTITLE9=Allow Me One More Show
TTITLE10=First Train Home (As Bluesbreakers 04-67 - Master 1999)
TTITLE11=Rambling Pony No.2
TTITLE12=Watch Out (Take1)
TTITLE13=Something Inside Of Me (Take 1) - (''Then Play On'' Outtake Originally Recorded '68 - Master 1999)
TTITLE14=Something Inside Of Me (Take 2)
TTITLE15=Something Inside Of Me (Take 3)
TTITLE16=One Sunny Day (''Then Play On'' Outtake Originally Recorded '68 - Master 1999)
TTITLE17=Without You (''Then Play On'' Outtake Originally Recorded '68 - Master 1999)
TTITLE18=Coming Your Way (Going My Way) - (''Then Play On'' Outtake Originally Recorded '68 - Master 1999)
EXTD=1999 Sony Music Entertainment (UK) Ltd.
EXTT0=
EXTT1=
EXTT2=
EXTT3=
EXTT4=
EXTT5=
EXTT6=
EXTT7=
EXTT8=
EXTT9=
EXTT10=
EXTT11=
EXTT12=
EXTT13=
EXTT14=
EXTT15=
EXTT16=
EXTT17=
EXTT18=
PLAYORDER=
